<svg width="42" height="42" viewBox="0 0 42 42" fill="none" xmlns="http://www.w3.org/2000/svg">
<g clip-path="url(#clip0_2_52)">
<path d="M41.0423 22.0101C41.0419 22.0105 41.0415 22.0111 41.0409 22.0116L32.6663 30.3458C32.0389 30.9701 31.0241 30.9678 30.3996 30.3403C29.7752 29.713 29.7776 28.6982 30.405 28.0738L36.0277 22.4783H2.08516C1.19997 22.4783 0.482422 21.7607 0.482422 20.8756C0.482422 19.9904 1.19997 19.2728 2.08516 19.2728H36.0276L30.4051 13.6774C29.7777 13.0529 29.7753 12.0382 30.3997 11.4108C31.0242 10.7832 32.0391 10.7811 32.6664 11.4053L41.041 19.7395C41.0415 19.74 41.0419 19.7406 41.0424 19.7411C41.6701 20.3676 41.6681 21.3856 41.0423 22.0101Z" fill="#3E3E3F"/>
</g>
<defs>
<clipPath id="clip0_2_52">
<rect width="41.03" height="41.03" fill="white" transform="matrix(1 0 0 -1 0.482422 41.3906)"/>
</clipPath>
</defs>
</svg>
