<svg width="326" height="330" viewBox="0 0 326 330" fill="none" xmlns="http://www.w3.org/2000/svg">
<g clip-path="url(#clip0_1_1002)">
<rect width="1440" height="2030" transform="translate(-25 -269)" fill="white"/>
<mask id="mask0_1_1002" style="mask-type:alpha" maskUnits="userSpaceOnUse" x="-67" y="-132" width="428" height="727">
<line x1="-66.2789" y1="155.505" x2="360.721" y2="-131.415" stroke="#A5E5F4"/>
<line x1="-66.2789" y1="163.783" x2="360.721" y2="-123.137" stroke="#A5E5F4"/>
<line x1="-66.2789" y1="172.061" x2="360.721" y2="-114.859" stroke="#A5E5F4"/>
<line x1="-66.2789" y1="180.339" x2="360.721" y2="-106.581" stroke="#A5E5F4"/>
<line x1="-66.2789" y1="188.616" x2="360.721" y2="-98.3034" stroke="#A5E5F4"/>
<line x1="-66.2789" y1="196.895" x2="360.721" y2="-90.0253" stroke="#A5E5F4"/>
<line x1="-66.2789" y1="205.172" x2="360.721" y2="-81.7475" stroke="#A5E5F4"/>
<line x1="-66.2789" y1="213.45" x2="360.721" y2="-73.4697" stroke="#A5E5F4"/>
<line x1="-66.2789" y1="221.728" x2="360.721" y2="-65.1916" stroke="#A5E5F4"/>
<line x1="-66.2789" y1="230.006" x2="360.721" y2="-56.9138" stroke="#A5E5F4"/>
<line x1="-66.2789" y1="238.284" x2="360.721" y2="-48.6357" stroke="#A5E5F4"/>
<line x1="-66.2789" y1="246.562" x2="360.721" y2="-40.3579" stroke="#A5E5F4"/>
<line x1="-66.2789" y1="254.84" x2="360.721" y2="-32.08" stroke="#A5E5F4"/>
<line x1="-66.2789" y1="263.118" x2="360.721" y2="-23.8019" stroke="#A5E5F4"/>
<line x1="-66.2789" y1="271.396" x2="360.721" y2="-15.5239" stroke="#A5E5F4"/>
<line x1="-66.2789" y1="279.674" x2="360.721" y2="-7.24604" stroke="#A5E5F4"/>
<line x1="-66.2789" y1="287.952" x2="360.721" y2="1.03179" stroke="#A5E5F4"/>
<line x1="-66.2789" y1="296.23" x2="360.721" y2="9.30987" stroke="#A5E5F4"/>
<line x1="-66.2789" y1="304.508" x2="360.721" y2="17.5877" stroke="#A5E5F4"/>
<line x1="-66.2789" y1="312.786" x2="360.721" y2="25.8658" stroke="#A5E5F4"/>
<line x1="-66.2789" y1="321.064" x2="360.721" y2="34.1436" stroke="#A5E5F4"/>
<line x1="-66.2789" y1="329.341" x2="360.721" y2="42.4214" stroke="#A5E5F4"/>
<line x1="-66.2789" y1="337.619" x2="360.721" y2="50.6995" stroke="#A5E5F4"/>
<line x1="-66.2789" y1="345.897" x2="360.721" y2="58.9773" stroke="#A5E5F4"/>
<line x1="-66.2789" y1="354.175" x2="360.721" y2="67.2554" stroke="#A5E5F4"/>
<line x1="-66.2789" y1="362.453" x2="360.721" y2="75.5333" stroke="#A5E5F4"/>
<line x1="-66.2789" y1="370.731" x2="360.721" y2="83.8111" stroke="#A5E5F4"/>
<line x1="-66.2789" y1="379.009" x2="360.721" y2="92.0892" stroke="#A5E5F4"/>
<line x1="-66.2789" y1="387.287" x2="360.721" y2="100.367" stroke="#A5E5F4"/>
<line x1="-66.2789" y1="395.565" x2="360.721" y2="108.645" stroke="#A5E5F4"/>
<line x1="-66.2789" y1="403.843" x2="360.721" y2="116.923" stroke="#A5E5F4"/>
<line x1="-66.2789" y1="412.121" x2="360.721" y2="125.201" stroke="#A5E5F4"/>
<line x1="-66.2789" y1="420.399" x2="360.721" y2="133.479" stroke="#A5E5F4"/>
<line x1="-66.2789" y1="428.677" x2="360.721" y2="141.757" stroke="#A5E5F4"/>
<line x1="-66.2789" y1="436.955" x2="360.721" y2="150.035" stroke="#A5E5F4"/>
<line x1="-66.2789" y1="445.232" x2="360.721" y2="158.313" stroke="#A5E5F4"/>
<line x1="-66.2789" y1="453.51" x2="360.721" y2="166.59" stroke="#A5E5F4"/>
<line x1="-66.2789" y1="461.788" x2="360.721" y2="174.868" stroke="#A5E5F4"/>
<line x1="-66.2789" y1="470.066" x2="360.721" y2="183.146" stroke="#A5E5F4"/>
<line x1="-66.2789" y1="478.344" x2="360.721" y2="191.424" stroke="#A5E5F4"/>
<line x1="-66.2789" y1="486.622" x2="360.721" y2="199.702" stroke="#A5E5F4"/>
<line x1="-66.2789" y1="494.9" x2="360.721" y2="207.98" stroke="#A5E5F4"/>
<line x1="-66.2789" y1="503.178" x2="360.721" y2="216.258" stroke="#A5E5F4"/>
<line x1="-66.2789" y1="511.456" x2="360.721" y2="224.536" stroke="#A5E5F4"/>
<line x1="-66.2789" y1="519.734" x2="360.721" y2="232.814" stroke="#A5E5F4"/>
<line x1="-66.2789" y1="528.012" x2="360.721" y2="241.092" stroke="#A5E5F4"/>
<line x1="-66.2789" y1="536.29" x2="360.721" y2="249.37" stroke="#A5E5F4"/>
<line x1="-66.2789" y1="544.568" x2="360.721" y2="257.648" stroke="#A5E5F4"/>
<line x1="-66.2789" y1="552.845" x2="360.721" y2="265.926" stroke="#A5E5F4"/>
<line x1="-66.2789" y1="561.124" x2="360.721" y2="274.204" stroke="#A5E5F4"/>
<line x1="-66.2789" y1="569.401" x2="360.721" y2="282.482" stroke="#A5E5F4"/>
<line x1="-66.2789" y1="577.679" x2="360.721" y2="290.759" stroke="#A5E5F4"/>
<line x1="-66.2789" y1="585.957" x2="360.721" y2="299.037" stroke="#A5E5F4"/>
<line x1="-66.2789" y1="594.235" x2="360.721" y2="307.315" stroke="#A5E5F4"/>
</mask>
<g mask="url(#mask0_1_1002)">
<path d="M325.735 328.197H0.822998V110.166L163.122 1.20264L325.735 110.166V328.197Z" fill="#A5E5F4"/>
</g>
<path d="M325.735 328.197H0.822998V110.166L163.122 1.20264L325.735 110.166V328.197Z" stroke="#A5E5F4" stroke-miterlimit="10"/>
</g>
<defs>
<clipPath id="clip0_1_1002">
<rect width="1440" height="2030" fill="white" transform="translate(-25 -269)"/>
</clipPath>
</defs>
</svg>
