<svg width="207" height="249" viewBox="0 0 207 249" fill="none" xmlns="http://www.w3.org/2000/svg">
<path fill-rule="evenodd" clip-rule="evenodd" d="M51.1462 106.05L69.7935 106.231L72.0937 98.6804L58.0469 83.3997L51.1462 106.05Z" fill="#FFE267" stroke="#A5E5F4" stroke-miterlimit="10" stroke-linecap="round" stroke-linejoin="round"/>
<path fill-rule="evenodd" clip-rule="evenodd" d="M105.509 26.901L121.263 43.8019L166.414 45.4562C175.584 46.0497 184.995 49.4667 190.858 57.3037C190.858 57.3037 173.488 29.4591 151.164 28.7087L105.509 26.901Z" fill="#FFE267" stroke="#A5E5F4" stroke-miterlimit="10" stroke-linecap="round" stroke-linejoin="round"/>
<path fill-rule="evenodd" clip-rule="evenodd" d="M57.0101 184.296L48.7833 175.189L60.1204 175.893L60.8871 173.376C61.9606 169.852 62.5306 166.176 63.1007 162.499C63.1007 162.499 63.1007 162.499 63.2541 161.996C63.5608 160.989 63.3641 159.829 63.6708 158.822C40.8434 157.918 37.5167 158.005 14.6893 157.101L44.6429 188.779C51.0097 196.77 53.8998 192.7 57.0101 184.296Z" fill="#FFE267" stroke="#A5E5F4" stroke-miterlimit="10" stroke-linecap="round" stroke-linejoin="round"/>
<path fill-rule="evenodd" clip-rule="evenodd" d="M166.413 45.4552L120.758 43.6475L117.077 55.7279L96.2221 124.183L114.716 124.867L132.198 67.4852L158.855 68.4558C176.342 68.8328 179.186 75.7497 174.585 90.8501L154.497 156.789C149.59 172.896 134.552 177.115 126.235 177.332L99.0745 176.208L98.9212 176.711L92.3272 198.355L122.661 199.896C144.482 200.493 163.9 185.506 169.574 166.882C177.854 139.702 186.135 112.521 194.416 85.3404C200.9 65.8632 189.393 45.8556 166.413 45.4552Z" fill="#FFE267" stroke="#A5E5F4" stroke-miterlimit="10" stroke-linecap="round" stroke-linejoin="round"/>
<path fill-rule="evenodd" clip-rule="evenodd" d="M154.339 157.29L174.581 90.8484C179.028 76.2513 176.031 69.8377 160.36 68.9141L137.972 142.403C133.021 156.846 125.491 161.703 109.164 161.129C106.494 160.866 104.173 161.259 101.503 160.996C101.633 165.986 100.603 171.173 98.763 177.213L125.924 178.337C138.224 177.684 148.731 172.084 153.572 159.807C154.032 158.297 154.185 157.793 154.339 157.29Z" fill="#FFE267" stroke="#A5E5F4" stroke-miterlimit="10" stroke-linecap="round" stroke-linejoin="round"/>
<path fill-rule="evenodd" clip-rule="evenodd" d="M60.268 175.387L48.7777 175.187L57.5078 184.447C58.2745 181.93 59.0412 179.414 59.808 176.897L60.268 175.387Z" fill="#FFE267" stroke="#A5E5F4" stroke-miterlimit="10" stroke-linecap="round" stroke-linejoin="round"/>
<path fill-rule="evenodd" clip-rule="evenodd" d="M90.6461 203.893C90.9527 202.887 91.2594 201.88 91.5661 200.873L91.8728 199.867L98.6202 177.719C107.318 147.365 91.2142 129.808 91.2142 129.808L69.6406 106.733L51.1467 106.049L72.7203 129.124C89.1305 145.675 81.1997 173.512 80.1262 177.036L79.9729 177.539L73.2256 199.686C73.0722 200.19 72.9189 200.693 72.7655 201.196C71.3421 204.063 64.8816 218.047 50.1078 219.596L67.9017 218.967C70.7251 218.727 85.4557 215.514 90.6461 203.893Z" fill="#FFE267" stroke="#A5E5F4" stroke-miterlimit="10" stroke-linecap="round" stroke-linejoin="round"/>
<path fill-rule="evenodd" clip-rule="evenodd" d="M92.3235 70.1887L67.8399 44.0273L49.3459 43.3436L87.8764 84.7857L92.3235 70.1887Z" fill="#FFE267" stroke="#A5E5F4" stroke-miterlimit="10" stroke-linecap="round" stroke-linejoin="round"/>
<path fill-rule="evenodd" clip-rule="evenodd" d="M14.5359 157.605L44.4896 189.283C53.2197 198.543 55.6299 188.827 59.967 176.396L60.8871 173.376C63.144 164.163 66.8244 152.082 58.7942 144.135L28.4906 111.8C35.3913 89.1496 42.4453 65.9956 49.3459 43.345L87.8764 84.7871L105.511 26.9023L121.265 43.8031L96.7292 124.339L58.0454 83.3998L51.1448 106.05L72.7183 129.125C86.9185 143.902 84.2647 163.446 79.5109 179.05L73.377 199.184C69.6966 211.264 51.4824 227.718 38.1355 213.75L7.48186 180.759L13.9225 159.618L14.5359 157.605Z" fill="#FFE267" stroke="#A5E5F4" stroke-miterlimit="10" stroke-linecap="round" stroke-linejoin="round"/>
</svg>
